<svg width="2460" height="1790" viewBox="0 0 2460 1790" fill="none" xmlns="http://www.w3.org/2000/svg">
<path d="M766.495 658.882C740.063 600.268 723.112 540.122 714.506 477.77C705.57 413.023 707.424 348.715 726.52 285.708C748.31 213.808 790.081 155.778 849.948 110.637C890.203 80.2841 934.729 57.9982 981.964 40.775C1033.53 21.9743 1086.44 8.48036 1141.08 3.41078C1267.87 -8.35301 1382.98 22.3242 1484.53 100.479C1543.38 145.777 1591.03 200.96 1628.81 264.717C1640.25 284.038 1637.84 282.041 1657.78 273.913C1706.02 254.239 1755.44 238.534 1806.58 228.369C1911.93 207.435 2016.22 209.717 2118.11 245.739C2254.63 294.006 2355.65 382.945 2418.28 514.134C2444.16 568.353 2458.36 625.762 2459.15 685.886C2459.91 743.811 2448.6 799.907 2427.94 853.941C2394.03 942.646 2335.96 1012.35 2258.43 1066.29C2202.18 1105.42 2140.63 1133.72 2075.53 1154.61C2002.89 1177.93 1928.56 1192.53 1852.49 1198.3C1838.54 1199.36 1824.57 1200.28 1810.62 1201.31C1802.47 1201.92 1801.09 1203 1801.07 1210.74C1801.03 1226.73 1801.22 1242.73 1801.58 1258.73C1802.01 1278.05 1802.9 1297.36 1803.26 1316.69C1805.3 1425.99 1807.26 1535.29 1809.2 1644.59C1809.31 1650.57 1809.13 1656.56 1808.9 1662.54C1808.8 1665.14 1805.4 1666.68 1802.98 1665.32C1800.67 1664.02 1798.38 1662.66 1796.23 1661.11C1754.95 1631.43 1708.66 1613.2 1659.32 1602.71C1603.59 1590.86 1547.19 1587.94 1490.3 1591.74C1369.46 1599.8 1253.85 1629.99 1141.53 1673.8C1086.12 1695.42 1029.27 1711.89 971.442 1725.13C873.991 1747.45 775.574 1764.58 676.571 1778.4C652.819 1781.71 629.08 1785.12 605.326 1788.42C602.042 1788.88 598.695 1789.22 595.393 1789.11C592.512 1789.02 590.408 1787.19 590.119 1784.22C589.733 1780.25 589.623 1776.25 589.623 1772.26C589.607 1600.27 589.616 1428.28 589.622 1256.29C589.622 1249.67 589.622 1243.05 589.622 1234.12C596.279 1255.27 597.48 1275.09 600.155 1294.61C606.85 1343.45 613.182 1392.34 619.566 1441.22C626.727 1496.06 633.773 1550.91 640.902 1605.74C641.933 1613.67 643.469 1621.55 644.21 1629.5C645.809 1646.65 645.638 1645.96 663.379 1649.09C707.645 1656.92 752.273 1657.01 796.868 1652.26C874.784 1643.96 949.839 1622.94 1024.29 1599.67C1112.66 1572.05 1200.75 1543.55 1289.06 1515.74C1338.03 1500.31 1387.72 1487.61 1438.53 1479.82C1486.79 1472.42 1535.27 1469.11 1583.96 1474.71C1615.93 1478.39 1646.99 1485.65 1675.38 1501.69C1677.12 1502.68 1678.84 1503.7 1680.65 1504.56C1685.64 1506.95 1688.57 1505.51 1688.69 1500.44C1688.86 1493.77 1688.81 1487.11 1688.73 1480.44C1687.42 1368.46 1686.05 1256.49 1684.77 1144.51C1684.48 1119.32 1682.91 1122.8 1707.09 1121.48C1852.79 1113.57 1986.87 1070.42 2107.66 987.871C2155.87 954.928 2198.58 915.987 2233.24 868.663C2258.68 833.923 2278.25 796.301 2289.08 754.432C2305.25 691.878 2298.9 631.173 2271.38 573.189C2221.11 467.282 2137.75 402.655 2023.18 378.407C1967.22 366.563 1910.68 366.252 1854.04 372.097C1767.24 381.054 1684.01 403.974 1603.46 437.14C1600.38 438.407 1597.32 439.706 1594.18 440.831C1591.32 441.859 1588.81 440.884 1587.38 438.368C1585.1 434.32 1583.22 430.041 1581.13 425.877C1554.37 372.488 1521.86 323.136 1478.68 281.432C1405.04 210.308 1317.08 171.962 1214.64 169.258C1084.97 165.835 971.254 208.55 873.102 292.562C820.12 337.912 788.597 396.517 773.335 464.116C761.013 518.691 760.326 573.774 767.126 629.101C768.183 637.698 769.376 646.28 771.033 656.633C770.426 658.796 769.29 659.194 766.495 658.882Z" fill="#FF8421"/>
<path d="M1649 1100.53C1643.76 1103.72 1640.58 1099.37 1636.79 1097.07C1621.42 1087.74 1606.47 1077.66 1590.82 1068.83C1522.44 1030.24 1448.76 1012.14 1370.4 1014.6C1322.31 1016.1 1275.07 1024.5 1228.36 1036.07C1161.69 1052.57 1096.61 1074.27 1031.46 1095.75C937.179 1126.84 842.55 1156.69 745.851 1179.54C679.682 1195.18 612.91 1207.58 545.574 1216.9C499.191 1223.31 452.487 1224.66 405.896 1221.14C331.741 1215.54 261.801 1195.51 198.445 1155.35C131.897 1113.17 82.7169 1055.63 48.6861 984.926C18.8032 922.838 3.17104 857.253 0.511614 788.369C-1.85277 727.122 5.29518 667.335 25.346 609.288C60.9726 506.149 130.167 436.074 233.357 400.585C321.52 370.264 411.13 366.008 500.559 393.739C604.588 425.998 681.557 490.573 727.114 592.563C726.729 594.378 725.647 594.82 723.008 594.456C690.679 552.545 650.724 523.316 603.521 504.039C515.802 468.217 426.217 463.082 335.591 491.307C259.219 515.092 202.612 562.657 167.909 635.515C147.347 678.686 133.331 723.398 131.531 771.576C128.712 847.047 151.631 913.697 201.589 970.063C258.622 1034.41 330.186 1072.35 415.987 1082.86C459.121 1088.15 502.351 1089.22 545.708 1087.8C631.13 1085 715.638 1074.1 799.802 1059.74C926.02 1038.21 1050.36 1008.59 1173.64 974.255C1238.93 956.069 1305.28 946.367 1373.19 950.094C1443.17 953.933 1508.29 973.092 1566.2 1013.56C1599.27 1036.68 1627.93 1064.28 1649 1100.53Z" fill="#FF8421"/>
<path d="M764.787 659.604C765.955 658.23 767.074 658.289 769.877 658.373C776.57 664.434 777.234 671.239 775.814 680.033C768.128 674.797 766.642 667.794 764.787 659.604Z" fill="#F8CC97"/>
<path d="M721.55 595.004C722.513 593.64 723.574 593.631 726.223 593.779C733.895 598.048 733.286 604.752 736.417 613.806C727.694 608.118 724.61 602.292 721.55 595.004Z" fill="#FF8421"/>
<path d="M1648.95 1102.01C1649.41 1102.36 1650.35 1102.53 1650.46 1102.92C1650.85 1104.39 1650.22 1104.53 1649.08 1102.51C1649.21 1101.78 1649.04 1101.94 1648.95 1102.01Z" fill="#FF8421"/>
<path d="M1934.12 278.031C1957.34 277.997 1978.67 278.423 1999.98 277.835C2020.08 277.281 2039.55 280.782 2059.09 284.612C2069.47 286.647 2079.91 288.054 2090.27 290.594C2131.54 300.713 2168.34 320.448 2204.42 341.881C2210.09 345.249 2215.23 349.565 2220.4 353.704C2240.58 369.846 2260.32 385.995 2276.85 406.574C2296.55 431.102 2314.83 456.171 2328.23 484.538C2343.3 516.423 2355.6 549.266 2361.61 584.326C2364.63 601.943 2366.73 619.695 2369.69 637.23C2375.85 673.774 2371.38 710.304 2372.88 746.785C2372.96 748.753 2372.76 750.824 2372.18 752.691C2371.87 753.693 2370.62 754.764 2369.57 755.106C2366.93 755.961 2365.85 753.689 2365.66 751.928C2365.16 747.308 2364.92 742.622 2365.07 737.978C2365.97 709.227 2360.04 681.347 2354.84 653.326C2349.61 625.2 2341.94 597.795 2332.72 570.758C2319.1 530.838 2300.34 493.262 2275 459.837C2258.33 437.837 2239.85 417.068 2217.64 399.326C2171.4 362.403 2119.75 338.56 2062.49 325.601C2046.32 321.941 2029.84 320.318 2013.6 317.499C1974.46 310.707 1935.21 315.71 1896.07 314.092C1879.54 319.903 1861.96 317.692 1844.93 320.68C1825.45 324.1 1805.63 326.348 1786.2 330.263C1762.83 334.971 1739.74 341.02 1716.57 346.676C1708.21 348.717 1700.01 351.416 1691.67 353.566C1689.33 354.17 1686.61 354.562 1684.61 352.109C1685.87 348.493 1689.42 347.624 1692.29 346.374C1709.96 338.696 1727.67 331.133 1745.49 323.813C1754.69 320.03 1764.16 316.888 1773.47 313.351C1805.85 301.051 1839.61 293.706 1873.4 287.09C1885.56 284.71 1897.92 281.446 1910.75 281.665C1917.89 281.788 1925.07 279.338 1934.12 278.031Z" fill="#F8AD41"/>
<path d="M228.303 1062.92C251.744 1078.32 274.748 1091.6 298.886 1102.91C321.806 1113.64 345.466 1121.92 370.462 1126.34C376.797 1127.45 382.911 1129.82 388.902 1133.86C382.522 1133.86 376.018 1134.67 369.781 1133.73C326.385 1127.14 283.566 1118.23 244.231 1097.62C205.831 1077.51 169.963 1054.08 139.223 1022.79C111.87 994.948 89.2357 964.305 72.5107 929.118C61.6056 906.176 54.99 881.919 48.951 857.382C43.6227 835.733 45.6835 813.782 44.7884 791.925C43.5255 761.083 47.8612 731.23 56.1714 701.515C66.0858 666.062 80.4062 632.834 98.9019 601.044C112.379 577.881 127.439 556.211 147.092 537.977C176.577 510.62 209.663 488.943 247.133 473.817C278.116 461.31 310.144 453.649 343.179 449.477C349.701 448.653 355.826 445.543 362.694 445.963C368.584 446.322 374.515 446.037 380.583 447.837C366.331 451.19 352.017 454.301 337.843 457.954C316.582 463.432 295.671 469.978 276.198 480.416C260.972 488.579 244.807 494.924 230.632 505.129C196.292 529.85 167.224 559.141 145.615 596.011C129.73 623.114 116.172 651.104 106.033 680.728C98.5121 702.705 93.5222 725.462 89.7164 748.302C87.557 761.262 88.7252 774.75 85.3129 787.753C84.3309 791.495 84.5466 795.814 85.2321 799.688C90.0671 827.014 90.8749 854.919 98.7234 881.861C107.162 910.829 120.158 937.378 135.199 963.383C154.564 996.864 183.154 1021.86 209.934 1048.6C215.051 1053.7 221.41 1057.57 228.303 1062.92Z" fill="#F8AD41"/>
<path d="M409.511 1135.1C414.142 1134.45 418.187 1132.65 421.374 1136.26C416.986 1138.72 412.728 1139.28 409.511 1135.1Z" fill="#F8AD41"/>
</svg>
